<?xml version="1.0" standalone="yes"?>
<svg xmlns="http://www.w3.org/2000/svg" width="500" height="500">
<path style="fill:#ffffff; stroke:none;" d="M0 0L0 500L500 500L500 0L0 0z"/>
<path style="fill:#b0b0b1; stroke:none;" d="M203 197L204 198L203 197z"/>
<path style="fill:#202224; stroke:none;" d="M203 198L203 200C216.956 201.929 214 215.078 214 226L216 226L216 206L217 206C221.328 218.794 222.531 226 237 226C234.502 219.524 231.532 202.802 225.581 199.042C221.696 196.588 208.016 198.104 203 198z"/>
<path style="fill:#4c4e4f; stroke:none;" d="M209 198L209 199L221 199L209 198M226 198L227 199L226 198z"/>
<path style="fill:#747576; stroke:none;" d="M284 198L285 199L284 198z"/>
<path style="fill:#4c4e4f; stroke:none;" d="M285 198L285 199L299 199L285 198z"/>
<path style="fill:#202224; stroke:none;" d="M284 199L275 226L284 207L285 207L285 226L296 226C296 215.47 293.701 202.004 307 200L307 198L284 199z"/>
<path style="fill:#747576; stroke:none;" d="M307 198L304 200L304 201L307 198z"/>
<path style="fill:#b0b0b1; stroke:none;" d="M227 199L228 200L227 199M203 200L204 201L203 200z"/>
<path style="fill:#747576; stroke:none;" d="M204.667 200.333L205.333 200.667L204.667 200.333z"/>
<path style="fill:#4c4e4f; stroke:none;" d="M206 200L207 201L206 200z"/>
<path style="fill:#747576; stroke:none;" d="M227 200L228 201L227 200z"/>
<path style="fill:#b0b0b1; stroke:none;" d="M283 200L284 201L283 200z"/>
<path style="fill:#4c4e4f; stroke:none;" d="M303 200L304 201L303 200z"/>
<path style="fill:#b0b0b1; stroke:none;" d="M307 200L308 201L307 200M209 201L210 202L209 201z"/>
<path style="fill:#4c4e4f; stroke:none;" d="M210 201L211 202L210 201M283 201L284 202L283 201z"/>
<path style="fill:#747576; stroke:none;" d="M300 201L301 202L300 201z"/>
<path style="fill:#b0b0b1; stroke:none;" d="M301 201L302 202L301 201z"/>
<path style="fill:#747576; stroke:none;" d="M211 202L212 203L211 202z"/>
<path style="fill:#b0b0b1; stroke:none;" d="M228 202L229 203L228 202M282 202L283 203L282 202z"/>
<path style="fill:#4c4e4f; stroke:none;" d="M298 202L299 203L298 202z"/>
<path style="fill:#747576; stroke:none;" d="M212 203L213 204L212 203M228 203L229 204L228 203M282 203L283 204L282 203z"/>
<path style="fill:#b0b0b1; stroke:none;" d="M212 204L213 205L212 204z"/>
<path style="fill:#4c4e4f; stroke:none;" d="M282 204L283 205L282 204z"/>
<path style="fill:#747576; stroke:none;" d="M297 204L298 205L297 204z"/>
<path style="fill:#4c4e4f; stroke:none;" d="M213 205L214 206L213 205z"/>
<path style="fill:#b0b0b1; stroke:none;" d="M229 205L230 206L229 205M281 205L282 206L281 205M297 205L298 206L297 205z"/>
<path style="fill:#747576; stroke:none;" d="M213 206L213 209L214 209L213 206z"/>
<path style="fill:#4c4e4f; stroke:none;" d="M216 206L218 208L216 206M229 206L230 207L229 206z"/>
<path style="fill:#747576; stroke:none;" d="M281 206L282 207L281 206M216 207L216 227L217 227L216 207z"/>
<path style="fill:#b0b0b1; stroke:none;" d="M230 207L231 208L230 207z"/>
<path style="fill:#747576; stroke:none;" d="M284 207L284 226L285 226L284 207z"/>
<path style="fill:#b0b0b1; stroke:none;" d="M217 208L218 209L217 208z"/>
<path style="fill:#747576; stroke:none;" d="M230 208L231 209L230 208z"/>
<path style="fill:#b0b0b1; stroke:none;" d="M280 208L281 209L280 208M213 209L213 227L214 227L213 209z"/>
<path style="fill:#4c4e4f; stroke:none;" d="M280 209L281 210L280 209z"/>
<path style="fill:#b0b0b1; stroke:none;" d="M283 209L284 210L283 209z"/>
<path style="fill:#4c4e4f; stroke:none;" d="M296 209L296 226L285 226L285 227C296.282 227 300.813 220.471 296 209z"/>
<path style="fill:#747576; stroke:none;" d="M218 210L219 211L218 210z"/>
<path style="fill:#b0b0b1; stroke:none;" d="M231 210L232 211L231 210M218 211L219 212L218 211z"/>
<path style="fill:#4c4e4f; stroke:none;" d="M231 211L232 212L231 211z"/>
<path style="fill:#747576; stroke:none;" d="M279 211L280 212L279 211M282 211L283 212L282 211z"/>
<path style="fill:#4c4e4f; stroke:none;" d="M219 212L220 213L219 212M279 212L280 213L279 212z"/>
<path style="fill:#b0b0b1; stroke:none;" d="M282 212L283 213L282 212z"/>
<path style="fill:#747576; stroke:none;" d="M219 213L220 214L219 213M232 213L233 214L232 213z"/>
<path style="fill:#b0b0b1; stroke:none;" d="M278 213L279 214L278 213z"/>
<path style="fill:#4c4e4f; stroke:none;" d="M281 213L282 214L281 213M232 214L233 215L232 214z"/>
<path style="fill:#747576; stroke:none;" d="M278 214L279 215L278 214z"/>
<path style="fill:#b0b0b1; stroke:none;" d="M281 214L282 215L281 214z"/>
<path style="fill:#4c4e4f; stroke:none;" d="M220 215L221 216L220 215z"/>
<path style="fill:#b0b0b1; stroke:none;" d="M233 215L234 216L233 215M220 216L221 217L220 216z"/>
<path style="fill:#747576; stroke:none;" d="M233 216L234 217L233 216z"/>
<path style="fill:#b0b0b1; stroke:none;" d="M277 216L278 217L277 216z"/>
<path style="fill:#747576; stroke:none;" d="M280 216L281 217L280 216z"/>
<path style="fill:#4c4e4f; stroke:none;" d="M277 217L278 218L277 217z"/>
<path style="fill:#b0b0b1; stroke:none;" d="M280 217L281 218L280 217z"/>
<path style="fill:#747576; stroke:none;" d="M221 218L222 219L221 218z"/>
<path style="fill:#b0b0b1; stroke:none;" d="M234 218L235 219L234 218M221 219L222 220L221 219z"/>
<path style="fill:#4c4e4f; stroke:none;" d="M234 219L235 220L234 219z"/>
<path style="fill:#747576; stroke:none;" d="M276 219L277 220L276 219M279 219L280 220L279 219z"/>
<path style="fill:#4c4e4f; stroke:none;" d="M222 220L223 221L222 220M276 220L277 221L276 220z"/>
<path style="fill:#b0b0b1; stroke:none;" d="M279 220L280 221L279 220M222 221L223 222L222 221z"/>
<path style="fill:#747576; stroke:none;" d="M235 221L236 222L235 221z"/>
<path style="fill:#b0b0b1; stroke:none;" d="M275 221L276 222L275 221z"/>
<path style="fill:#4c4e4f; stroke:none;" d="M278 221L279 222L278 221M235 222L236 223L235 222z"/>
<path style="fill:#747576; stroke:none;" d="M275 222L276 223L275 222z"/>
<path style="fill:#b0b0b1; stroke:none;" d="M278 222L279 223L278 222z"/>
<path style="fill:#747576; stroke:none;" d="M223 223L224 224L223 223z"/>
<path style="fill:#b0b0b1; stroke:none;" d="M236 223L237 224L236 223M223 224L224 225L223 224z"/>
<path style="fill:#747576; stroke:none;" d="M236 224L237 225L236 224z"/>
<path style="fill:#b0b0b1; stroke:none;" d="M274 224L275 225L274 224z"/>
<path style="fill:#4c4e4f; stroke:none;" d="M277 224L278 225L277 224M224 225L224 226L237 227L237 226L224 225M274 225L274 227L276 227L274 225z"/>
<path style="fill:#b0b0b1; stroke:none;" d="M277 225L278 226L277 225z"/>
<path style="fill:#4c4e4f; stroke:none;" d="M214.667 226.333L215.333 226.667L214.667 226.333z"/>
<path style="fill:#b0b0b1; stroke:none;" d="M224 226L225 227L224 226M237 226L238 227L237 226z"/>
<path style="fill:#747576; stroke:none;" d="M276 226L277 227L276 226z"/>
<path style="fill:#b0b0b1; stroke:none;" d="M284 226L285 227L284 226z"/>
<path style="fill:#747576; stroke:none;" d="M296 226L297 227L296 226z"/>
<path style="fill:#b0b0b1; stroke:none;" d="M214 244L214 246L216 244L214 244M222 244L221 248L222 248L224 246L224 245L222 244M243.667 244.333L244.333 244.667L243.667 244.333M249.333 244.667L249.667 245.333L249.333 244.667M256 244L256 253L257 253L259 245L256 244M265 244L265 253L266 253L267 244L265 244M270.333 244.667L270.667 245.333L270.333 244.667z"/>
<path style="fill:#202224; stroke:none;" d="M215 245L216 246L215 245M222 245L222 254L223 254L222 245z"/>
<path style="fill:#4c4e4f; stroke:none;" d="M233 245L234 246L233 245z"/>
<path style="fill:#b0b0b1; stroke:none;" d="M234 245L235 246L234 245z"/>
<path style="fill:#4c4e4f; stroke:none;" d="M243.667 245.333L244.333 245.667L243.667 245.333z"/>
<path style="fill:#202224; stroke:none;" d="M257 245L257 254L258 254L257 245M266 245L266 254L267 254L266 245z"/>
<path style="fill:#747576; stroke:none;" d="M277 245L278 246L277 245z"/>
<path style="fill:#b0b0b1; stroke:none;" d="M280 245L281 246L280 245z"/>
<path style="fill:#747576; stroke:none;" d="M281 245L282 246L281 245M215.667 246.333L216.333 246.667L215.667 246.333M233.667 246.333L234.333 246.667L233.667 246.333z"/>
<path style="fill:#b0b0b1; stroke:none;" d="M243 246L244 247L243 246z"/>
<path style="fill:#202224; stroke:none;" d="M244.333 246.667L244.667 247.333L244.333 246.667z"/>
<path style="fill:#4c4e4f; stroke:none;" d="M277 246L278 247L277 246M281 246L282 247L281 246z"/>
<path style="fill:#b0b0b1; stroke:none;" d="M215 247L216 248L215 247z"/>
<path style="fill:#202224; stroke:none;" d="M216 247L217 248L216 247z"/>
<path style="fill:#b0b0b1; stroke:none;" d="M233 247L234 248L233 247z"/>
<path style="fill:#202224; stroke:none;" d="M234 247L235 248L234 247z"/>
<path style="fill:#b0b0b1; stroke:none;" d="M245 247L246 248L245 247z"/>
<path style="fill:#202224; stroke:none;" d="M277 247L278 248L277 247z"/>
<path style="fill:#4c4e4f; stroke:none;" d="M216 248L218 250L216 248z"/>
<path style="fill:#b0b0b1; stroke:none;" d="M217 248L218 249L217 248z"/>
<path style="fill:#4c4e4f; stroke:none;" d="M234 248L236 250L234 248z"/>
<path style="fill:#b0b0b1; stroke:none;" d="M235 248L236 249L235 248z"/>
<path style="fill:#747576; stroke:none;" d="M244.667 248.333L245.333 248.667L244.667 248.333z"/>
<path style="fill:#4c4e4f; stroke:none;" d="M277.667 248.333L278.333 248.667L277.667 248.333z"/>
<path style="fill:#b0b0b1; stroke:none;" d="M279 248L280 249L279 248M216 249L217 250L216 249z"/>
<path style="fill:#747576; stroke:none;" d="M234 249L235 250L234 249z"/>
<path style="fill:#b0b0b1; stroke:none;" d="M244 249L245 250L244 249z"/>
<path style="fill:#202224; stroke:none;" d="M245 249L246 250L245 249z"/>
<path style="fill:#747576; stroke:none;" d="M278 249L279 250L278 249z"/>
<path style="fill:#202224; stroke:none;" d="M279 249L280 250L279 249z"/>
<path style="fill:#4c4e4f; stroke:none;" d="M280 249L281 250L280 249z"/>
<path style="fill:#b0b0b1; stroke:none;" d="M281 249L282 250L281 249z"/>
<path style="fill:#202224; stroke:none;" d="M217 250L218 251L217 250z"/>
<path style="fill:#b0b0b1; stroke:none;" d="M218 250L219 251L218 250M231 250L232 251L231 250M234 250L235 251L234 250z"/>
<path style="fill:#202224; stroke:none;" d="M235 250L236 251L235 250z"/>
<path style="fill:#4c4e4f; stroke:none;" d="M245 250L246 251L245 250z"/>
<path style="fill:#b0b0b1; stroke:none;" d="M246 250L247 251L246 250z"/>
<path style="fill:#747576; stroke:none;" d="M280 250L281 251L280 250z"/>
<path style="fill:#202224; stroke:none;" d="M281 250L282 251L281 250z"/>
<path style="fill:#747576; stroke:none;" d="M217.667 251.333L218.333 251.667L217.667 251.333z"/>
<path style="fill:#4c4e4f; stroke:none;" d="M235 251L237 253L235 251z"/>
<path style="fill:#747576; stroke:none;" d="M236 251L237 252L236 251M245.667 251.333L246.333 251.667L245.667 251.333z"/>
<path style="fill:#b0b0b1; stroke:none;" d="M277 251L276 253L277 251z"/>
<path style="fill:#4c4e4f; stroke:none;" d="M281.333 251.667L281.667 252.333L281.333 251.667z"/>
<path style="fill:#b0b0b1; stroke:none;" d="M282 251L283 252L282 251z"/>
<path style="fill:#202224; stroke:none;" d="M218 252L219 253L218 252z"/>
<path style="fill:#b0b0b1; stroke:none;" d="M219 252L220 253L219 252M235.333 252.667L235.667 253.333L235.333 252.667M245 252L246 253L245 252z"/>
<path style="fill:#202224; stroke:none;" d="M246 252L247 253L246 252z"/>
<path style="fill:#747576; stroke:none;" d="M277.333 252.667L277.667 253.333L277.333 252.667z"/>
<path style="fill:#b0b0b1; stroke:none;" d="M214.667 253.333L215.333 253.667L214.667 253.333z"/>
<path style="fill:#747576; stroke:none;" d="M218 253L219 254L218 253z"/>
<path style="fill:#b0b0b1; stroke:none;" d="M221 253L222 254L221 253M223 253L224 254L223 253M229 253L230 254L229 253z"/>
<path style="fill:#747576; stroke:none;" d="M230 253L231 254L230 253z"/>
<path style="fill:#202224; stroke:none;" d="M236 253L237 254L236 253z"/>
<path style="fill:#b0b0b1; stroke:none;" d="M237 253L238 254L237 253z"/>
<path style="fill:#4c4e4f; stroke:none;" d="M246 253L247 254L246 253z"/>
<path style="fill:#747576; stroke:none;" d="M256 253L257 254L256 253z"/>
<path style="fill:#b0b0b1; stroke:none;" d="M258 253L259 254L258 253z"/>
<path style="fill:#747576; stroke:none;" d="M265 253L266 254L265 253z"/>
<path style="fill:#b0b0b1; stroke:none;" d="M270.667 253.333L271.333 253.667L270.667 253.333M278 253L279 254L278 253M280.667 253.333L281.333 253.667L280.667 253.333M213 271L213 280L214 280L213 271z"/>
<path style="fill:#747576; stroke:none;" d="M214 271L214 272L216 279L217 279L214 271z"/>
<path style="fill:#b0b0b1; stroke:none;" d="M216 271L217 272L216 271z"/>
<path style="fill:#747576; stroke:none;" d="M242 273L254 272C250.479 270.522 244.661 269.955 242 273z"/>
<path style="fill:#b0b0b1; stroke:none;" d="M254 271L255 272L254 271z"/>
<path style="fill:#747576; stroke:none;" d="M257 271L257 272L260 272L257 271z"/>
<path style="fill:#b0b0b1; stroke:none;" d="M284 271L285 272L284 271z"/>
<path style="fill:#747576; stroke:none;" d="M284 282L285 282L285 272L297 272C287.28 267.921 284.001 273.222 284 282z"/>
<path style="fill:#202224; stroke:none;" d="M214 272C213.999 277.006 214.634 282.86 210.721 286.697C208.33 289.042 205.024 289.326 203 292L228 291L228 290C217.87 287.343 216.028 282.06 216 272L214 272M243 272L250 292L252 292L259 272L256 275L243 272z"/>
<path style="fill:#4c4e4f; stroke:none;" d="M254 272L255 273L254 272z"/>
<path style="fill:#b0b0b1; stroke:none;" d="M256 272L255 274L256 272z"/>
<path style="fill:#4c4e4f; stroke:none;" d="M259 272L260 273L259 272z"/>
<path style="fill:#202224; stroke:none;" d="M285 272C284.999 276.933 285.761 283.675 281.581 287.272C279.11 289.398 276.021 289.333 274 292C283.653 289.702 297.347 289.702 307 292L299.314 286.686L296 272L285 272z"/>
<path style="fill:#4c4e4f; stroke:none;" d="M296 272L296 281L297 281L296 272z"/>
<path style="fill:#b0b0b1; stroke:none;" d="M242 273L243 274L242 273z"/>
<path style="fill:#747576; stroke:none;" d="M256 273L257 274L256 273z"/>
<path style="fill:#b0b0b1; stroke:none;" d="M259 273L260 274L259 273z"/>
<path style="fill:#4c4e4f; stroke:none;" d="M243 274L244 275L243 274M255 274L256 275L255 274z"/>
<path style="fill:#b0b0b1; stroke:none;" d="M243 275L244 276L243 275z"/>
<path style="fill:#4c4e4f; stroke:none;" d="M258 275L259 276L258 275z"/>
<path style="fill:#b0b0b1; stroke:none;" d="M258 276L259 277L258 276z"/>
<path style="fill:#747576; stroke:none;" d="M244 277L245 278L244 277z"/>
<path style="fill:#b0b0b1; stroke:none;" d="M244 278L245 279L244 278z"/>
<path style="fill:#747576; stroke:none;" d="M257 278L258 279L257 278z"/>
<path style="fill:#4c4e4f; stroke:none;" d="M216.333 279.667L216.667 280.333L216.333 279.667M245 279L246 280L245 279z"/>
<path style="fill:#b0b0b1; stroke:none;" d="M257 279L258 280L257 279z"/>
<path style="fill:#747576; stroke:none;" d="M213.333 280.667L213.667 281.333L213.333 280.667z"/>
<path style="fill:#b0b0b1; stroke:none;" d="M245 280L246 281L245 280z"/>
<path style="fill:#4c4e4f; stroke:none;" d="M256 280L257 281L256 280z"/>
<path style="fill:#747576; stroke:none;" d="M256 281L257 282L256 281z"/>
<path style="fill:#4c4e4f; stroke:none;" d="M213 282L214 283L213 282z"/>
<path style="fill:#747576; stroke:none;" d="M246 282L247 283L246 282z"/>
<path style="fill:#4c4e4f; stroke:none;" d="M284 282L285 283L284 282z"/>
<path style="fill:#b0b0b1; stroke:none;" d="M217 283L218 284L217 283M246 283L247 284L246 283z"/>
<path style="fill:#4c4e4f; stroke:none;" d="M255 283L256 284L255 283z"/>
<path style="fill:#b0b0b1; stroke:none;" d="M297.333 283.667L297.667 284.333L297.333 283.667M212 284L213 285L212 284z"/>
<path style="fill:#747576; stroke:none;" d="M217 284L218 285L217 284z"/>
<path style="fill:#4c4e4f; stroke:none;" d="M247 284L248 285L247 284z"/>
<path style="fill:#b0b0b1; stroke:none;" d="M255 284L256 285L255 284z"/>
<path style="fill:#4c4e4f; stroke:none;" d="M212 285L213 286L212 285z"/>
<path style="fill:#747576; stroke:none;" d="M247 285L248 286L247 285z"/>
<path style="fill:#b0b0b1; stroke:none;" d="M283 285L284 286L283 285z"/>
<path style="fill:#4c4e4f; stroke:none;" d="M297 285L298 286L297 285z"/>
<path style="fill:#b0b0b1; stroke:none;" d="M211 286L212 287L211 286z"/>
<path style="fill:#4c4e4f; stroke:none;" d="M218 286L219 287L218 286z"/>
<path style="fill:#747576; stroke:none;" d="M254 286L255 287L254 286z"/>
<path style="fill:#b0b0b1; stroke:none;" d="M298 286L299 287L298 286z"/>
<path style="fill:#747576; stroke:none;" d="M210 287L211 288L210 287z"/>
<path style="fill:#4c4e4f; stroke:none;" d="M219 287L220 288L219 287z"/>
<path style="fill:#b0b0b1; stroke:none;" d="M220 287L221 288L220 287z"/>
<path style="fill:#4c4e4f; stroke:none;" d="M248 287L249 288L248 287z"/>
<path style="fill:#b0b0b1; stroke:none;" d="M254 287L255 288L254 287z"/>
<path style="fill:#4c4e4f; stroke:none;" d="M282 287L283 288L282 287z"/>
<path style="fill:#b0b0b1; stroke:none;" d="M299 287L300 288L299 287M207 288L208 289L207 288z"/>
<path style="fill:#747576; stroke:none;" d="M208 288L209 289L208 288z"/>
<path style="fill:#4c4e4f; stroke:none;" d="M209 288L210 289L209 288M221 288L222 289L221 288z"/>
<path style="fill:#747576; stroke:none;" d="M222 288L223 289L222 288z"/>
<path style="fill:#b0b0b1; stroke:none;" d="M223 288L224 289L223 288M248 288L249 289L248 288z"/>
<path style="fill:#4c4e4f; stroke:none;" d="M253 288L254 289L253 288z"/>
<path style="fill:#b0b0b1; stroke:none;" d="M278.667 288.333L279.333 288.667L278.667 288.333z"/>
<path style="fill:#747576; stroke:none;" d="M280 288L281 289L280 288z"/>
<path style="fill:#4c4e4f; stroke:none;" d="M300 288L301 289L300 288z"/>
<path style="fill:#b0b0b1; stroke:none;" d="M301.667 288.333L302.333 288.667L301.667 288.333z"/>
<path style="fill:#747576; stroke:none;" d="M203 289L204 290L203 289z"/>
<path style="fill:#4c4e4f; stroke:none;" d="M204.667 289.333L205.333 289.667L204.667 289.333M226 289L226 290L228 290L228 291L224 291L224 292L229 292L226 289z"/>
<path style="fill:#747576; stroke:none;" d="M228 289L229 290L228 289M253 289L254 290L253 289z"/>
<path style="fill:#b0b0b1; stroke:none;" d="M273 289L273 292L274 292L273 289z"/>
<path style="fill:#747576; stroke:none;" d="M274 289L275 290L274 289z"/>
<path style="fill:#4c4e4f; stroke:none;" d="M275.667 289.333L276.333 289.667L275.667 289.333M305.667 289.333L306.333 289.667L305.667 289.333z"/>
<path style="fill:#b0b0b1; stroke:none;" d="M307 289L308 290L307 289z"/>
<path style="fill:#747576; stroke:none;" d="M249 290L250 291L249 290M307.333 290.667L307.667 291.333L307.333 290.667z"/>
<path style="fill:#4c4e4f; stroke:none;" d="M204 291L204 292L207 292L204 291z"/>
<path style="fill:#747576; stroke:none;" d="M207 291L207 292L224 292L207 291z"/>
<path style="fill:#b0b0b1; stroke:none;" d="M249 291L250 292L249 291z"/>
<path style="fill:#4c4e4f; stroke:none;" d="M252 291L253 292L252 291M275 291L275 292L280 292L275 291z"/>
<path style="fill:#747576; stroke:none;" d="M280 291L280 292L301 292L280 291z"/>
<path style="fill:#4c4e4f; stroke:none;" d="M301 291L301 292L306 292L301 291z"/>
<path style="fill:#747576; stroke:none;" d="M250.667 292.333L251.333 292.667L250.667 292.333z"/>
<path style="fill:#b0b0b1; stroke:none;" d="M252 292L253 293L252 292z"/>
</svg>
